{
  "accessors": [
    {
      "bufferView": 2,
      "componentType": 5126,
      "count": 65532,
      "max": [
        6.2407302856445312,
        -41.946002960205078,
        7.5133390426635742
      ],
      "min": [
        -14.232610702514648,
        -50.027931213378906,
        -5.4528899192810059
      ],
      "type": "VEC3"
    },
    {
      "bufferView": 2,
      "byteOffset": 786384,
      "componentType": 5126,
      "count": 65532,
      "max": [
        0.99998593330383301,
        1,
        0.99997282028198242
      ],
      "min": [
        -0.99995154142379761,
        -0.99999988079071045,
        -0.99999254941940308
      ],
      "type": "VEC3"
    },
    {
      "bufferView": 3,
      "componentType": 5126,
      "count": 65532,
      "max": [
        1,
        0.99313992261886597,
        0.99634629487991333,
        1
      ],
      "min": [
        -1,
        -0.9999815821647644,
        -0.99967831373214722,
        -1
      ],
      "type": "VEC4"
    },
    {
      "bufferView": 3,
      "byteOffset": 1048512,
      "componentType": 5126,
      "count": 65532,
      "max": [
        0.99607843160629272,
        0.99607843160629272,
        0.99607843160629272,
        1
      ],
      "min": [
        0,
        0,
        0,
        1
      ],
      "type": "VEC4"
    },
    {
      "bufferView": 1,
      "componentType": 5126,
      "count": 65532,
      "max": [
        0.99962502717971802,
        0.80004900693893433
      ],
      "min": [
        0.00024399999529123306,
        0.00037100000190548599
      ],
      "type": "VEC2"
    },
    {
      "bufferView": 0,
      "componentType": 5125,
      "count": 252132,
      "max": [
        65531
      ],
      "min": [
        0
      ],
      "type": "SCALAR"
    },
    {
      "bufferView": 2,
      "byteOffset": 1572768,
      "componentType": 5126,
      "count": 25968,
      "max": [
        6.4350810050964355,
        -41.946010589599609,
        7.5132670402526855
      ],
      "min": [
        -11.429909706115723,
        -48.893657684326172,
        -5.1131796836853027
      ],
      "type": "VEC3"
    },
    {
      "bufferView": 2,
      "byteOffset": 1884384,
      "componentType": 5126,
      "count": 25968,
      "max": [
        0.99996650218963623,
        1,
        0.999614417552948
      ],
      "min": [
        -0.99994385242462158,
        -1,
        -0.99999451637268066
      ],
      "type": "VEC3"
    },
    {
      "bufferView": 3,
      "byteOffset": 2097024,
      "componentType": 5126,
      "count": 25968,
      "max": [
        0.99999982118606567,
        0.99721956253051758,
        0.99615061283111572,
        -1
      ],
      "min": [
        -1,
        -0.99992239475250244,
        -0.99369162321090698,
        -1
      ],
      "type": "VEC4"
    },
    {
      "bufferView": 3,
      "byteOffset": 2512512,
      "componentType": 5126,
      "count": 25968,
      "max": [
        0.99607843160629272,
        0.99607843160629272,
        0.99607843160629272,
        1
      ],
      "min": [
        0,
        0,
        0,
        1
      ],
      "type": "VEC4"
    },
    {
      "bufferView": 1,
      "byteOffset": 524256,
      "componentType": 5126,
      "count": 25968,
      "max": [
        0.99962800741195679,
        0.939208984375
      ],
      "min": [
        0.00024399999529123306,
        0.69626498222351074
      ],
      "type": "VEC2"
    },
    {
      "bufferView": 0,
      "byteOffset": 1008528,
      "componentType": 5125,
      "count": 106587,
      "max": [
        25967
      ],
      "min": [
        0
      ],
      "type": "SCALAR"
    },
    {
      "bufferView": 2,
      "byteOffset": 2196000,
      "componentType": 5126,
      "count": 65532,
      "max": [
        6.384648323059082,
        -41.946029663085938,
        7.5132670402526855
      ],
      "min": [
        -12.070147514343262,
        -49.306243896484375,
        -4.3232288360595703
      ],
      "type": "VEC3"
    },
    {
      "bufferView": 2,
      "byteOffset": 2982384,
      "componentType": 5126,
      "count": 65532,
      "max": [
        0.99999654293060303,
        1,
        0.99993956089019775
      ],
      "min": [
        -0.99997407197952271,
        -0.99999964237213135,
        -0.99998956918716431
      ],
      "type": "VEC3"
    },
    {
      "bufferView": 3,
      "byteOffset": 2928000,
      "componentType": 5126,
      "count": 65532,
      "max": [
        0.99999988079071045,
        0.99919158220291138,
        0.99827510118484497,
        1
      ],
      "min": [
        -1,
        -0.99986761808395386,
        -0.99937248229980469,
        -1
      ],
      "type": "VEC4"
    },
    {
      "bufferView": 3,
      "byteOffset": 3976512,
      "componentType": 5126,
      "count": 65532,
      "max": [
        0.99607843160629272,
        0.99607843160629272,
        0.99607843160629272,
        1
      ],
      "min": [
        0,
        0,
        0,
        1
      ],
      "type": "VEC4"
    },
    {
      "bufferView": 1,
      "byteOffset": 732000,
      "componentType": 5126,
      "count": 65532,
      "max": [
        1.9996310472488403,
        0.5603029727935791
      ],
      "min": [
        1.0002440214157104,
        0.00037100000190548599
      ],
      "type": "VEC2"
    },
    {
      "bufferView": 0,
      "byteOffset": 1434876,
      "componentType": 5125,
      "count": 243243,
      "max": [
        65531
      ],
      "min": [
        0
      ],
      "type": "SCALAR"
    },
    {
      "bufferView": 2,
      "byteOffset": 3768768,
      "componentType": 5126,
      "count": 41982,
      "max": [
        5.5620436668395996,
        -41.946018218994141,
        7.5132670402526855
      ],
      "min": [
        -15.27410888671875,
        -49.777324676513672,
        -3.8216021060943604
      ],
      "type": "VEC3"
    },
    {
      "bufferView": 2,
      "byteOffset": 4272552,
      "componentType": 5126,
      "count": 41982,
      "max": [
        0.99999707937240601,
        1,
        0.99996191263198853
      ],
      "min": [
        -0.99985337257385254,
        -0.9999997615814209,
        -0.99993205070495605
      ],
      "type": "VEC3"
    },
    {
      "bufferView": 3,
      "byteOffset": 5025024,
      "componentType": 5126,
      "count": 41982,
      "max": [
        1,
        0.99784356355667114,
        0.97978496551513672,
        1
      ],
      "min": [
        -1,
        -0.99985986948013306,
        -0.99945861101150513,
        -1
      ],
      "type": "VEC4"
    },
    {
      "bufferView": 3,
      "byteOffset": 5696736,
      "componentType": 5126,
      "count": 41982,
      "max": [
        0.99607843160629272,
        0.99607843160629272,
        0.99607843160629272,
        1
      ],
      "min": [
        0,
        0,
        0,
        1
      ],
      "type": "VEC4"
    },
    {
      "bufferView": 1,
      "byteOffset": 1256256,
      "componentType": 5126,
      "count": 41982,
      "max": [
        1.9996039867401123,
        0.96847599744796753
      ],
      "min": [
        1.0002440214157104,
        0.44593501091003418
      ],
      "type": "VEC2"
    },
    {
      "bufferView": 0,
      "byteOffset": 2407848,
      "componentType": 5125,
      "count": 138639,
      "max": [
        41981
      ],
      "min": [
        0
      ],
      "type": "SCALAR"
    }
  ],
  "asset": {
    "generator": "Sketchfab (OSG glTF plugin)",
    "version": "2.0"
  },
  "bufferViews": [
    {
      "buffer": 0,
      "byteLength": 2962404,
      "byteOffset": 0,
      "name": "floatBufferViews",
      "target": 34963
    },
    {
      "buffer": 0,
      "byteLength": 1592112,
      "byteOffset": 2962404,
      "byteStride": 8,
      "name": "floatBufferViews",
      "target": 34962
    },
    {
      "buffer": 0,
      "byteLength": 4776336,
      "byteOffset": 4554516,
      "byteStride": 12,
      "name": "floatBufferViews",
      "target": 34962
    },
    {
      "buffer": 0,
      "byteLength": 6368448,
      "byteOffset": 9330852,
      "byteStride": 16,
      "name": "floatBufferViews",
      "target": 34962
    }
  ],
  "buffers": [
    {
      "byteLength": 15699300,
      "uri": "scene.bin"
    }
  ],
  "images": [
    {
      "uri": "textures/York_Blue_Art_house_Material_u2_v1_baseColor.jpeg"
    },
    {
      "uri": "textures/York_Blue_Art_house_Material_u1_v1_baseColor.jpeg"
    }
  ],
  "materials": [
    {
      "doubleSided": true,
      "emissiveFactor": [
        0,
        0,
        0
      ],
      "name": "York_Blue_Art_house_Material_u1_v1",
      "pbrMetallicRoughness": {
        "baseColorFactor": [
          1,
          1,
          1,
          1
        ],
        "baseColorTexture": {
          "index": 1,
          "texCoord": 0
        },
        "metallicFactor": 0,
        "roughnessFactor": 1
      }
    },
    {
      "doubleSided": true,
      "emissiveFactor": [
        0,
        0,
        0
      ],
      "name": "York_Blue_Art_house_Material_u2_v1",
      "pbrMetallicRoughness": {
        "baseColorFactor": [
          1,
          1,
          1,
          1
        ],
        "baseColorTexture": {
          "index": 0,
          "texCoord": 0
        },
        "metallicFactor": 0,
        "roughnessFactor": 1
      }
    }
  ],
  "meshes": [
    {
      "primitives": [
        {
          "attributes": {
            "COLOR_0": 3,
            "NORMAL": 1,
            "POSITION": 0,
            "TANGENT": 2,
            "TEXCOORD_0": 4
          },
          "indices": 5,
          "material": 0,
          "mode": 4
        }
      ]
    },
    {
      "primitives": [
        {
          "attributes": {
            "COLOR_0": 9,
            "NORMAL": 7,
            "POSITION": 6,
            "TANGENT": 8,
            "TEXCOORD_0": 10
          },
          "indices": 11,
          "material": 0,
          "mode": 4
        }
      ]
    },
    {
      "primitives": [
        {
          "attributes": {
            "COLOR_0": 15,
            "NORMAL": 13,
            "POSITION": 12,
            "TANGENT": 14,
            "TEXCOORD_0": 16
          },
          "indices": 17,
          "material": 1,
          "mode": 4
        }
      ]
    },
    {
      "primitives": [
        {
          "attributes": {
            "COLOR_0": 21,
            "NORMAL": 19,
            "POSITION": 18,
            "TANGENT": 20,
            "TEXCOORD_0": 22
          },
          "indices": 23,
          "material": 1,
          "mode": 4
        }
      ]
    }
  ],
  "nodes": [
    {
      "children": [
        1
      ],
      "name": "RootNode (gltf orientation matrix)",
      "rotation": [
        -0.70710678118654746,
        -0,
        -0,
        0.70710678118654757
      ]
    },
    {
      "children": [
        2
      ],
      "matrix": [
        0.97965067625045776,
        -0.20065343379974365,
        -0.004767905455082655,
        0,
        -0.0083233118057250977,
        -0.016879236325621605,
        -0.99982291460037231,
        0,
        0.20053742825984955,
        0.97951686382293701,
        -0.018205856904387474,
        0,
        -0.67928093671798706,
        -48.658962249755859,
        -44.950920104980469,
        1
      ],
      "name": "RootNode (model correction matrix)"
    },
    {
      "children": [
        7
      ],
      "name": "York_Blue_Art_house.obj.cleaner.materialmerger.gles"
    },
    {
      "mesh": 0,
      "name": ""
    },
    {
      "mesh": 1,
      "name": ""
    },
    {
      "mesh": 2,
      "name": ""
    },
    {
      "mesh": 3,
      "name": ""
    },
    {
      "children": [
        3,
        4,
        5,
        6
      ],
      "name": "Geode"
    }
  ],
  "samplers": [
    {
      "magFilter": 9729,
      "minFilter": 9987,
      "wrapS": 10497,
      "wrapT": 10497
    }
  ],
  "scene": 0,
  "scenes": [
    {
      "name": "OSG_Scene",
      "nodes": [
        0
      ]
    }
  ],
  "textures": [
    {
      "sampler": 0,
      "source": 0
    },
    {
      "sampler": 0,
      "source": 1
    }
  ]
}

